<svg xmlns="http://www.w3.org/2000/svg" width="228" height="209.57" viewBox="0 0 228 209.57">
  <g id="Group_8264" data-name="Group 8264" transform="translate(-711 -84.573)">
    <text id="Axxon" transform="translate(825 273.143)" fill="#fff" font-size="82" font-family="Roboto-Regular, Roboto"><tspan x="-113.19" y="0">Axx</tspan><tspan y="0" font-family="Roboto-Bold, Roboto" font-weight="700">o</tspan><tspan y="0">n</tspan></text>
    <path id="Path_12752" data-name="Path 12752" d="M170.914,39.9c-21.2,0-53.2,3.32-53.2,32.782,0,28.876,17.883,76.416,51.167,78.286V146.5a2.955,2.955,0,0,1-1.562-2.678v-5.552a1.752,1.752,0,0,0-1.507-1.758c-9.6-1.06-15.094-5.552-18.386-15.038-1.311-3.766-3.208-10.825-5.106-18.888a2.961,2.961,0,0,1,.949-2.957c-1.2-5.245-4.241-19.195-4.241-24.551,0-9.653,6.807-11.271,12.164-11.55a5.1,5.1,0,0,1,3.99-2.4c.335-.028.67-.056.976-.056,3.655,0,3.655,2.762,3.655,4.575,0,1.841,0,4.6-3.655,4.6-.307,0-.614-.028-.976-.056a5.156,5.156,0,0,1-3.934-2.316c-6.807.391-8.147,2.957-8.147,7.17,0,3.432,1.562,12.415,4.1,23.519a2.715,2.715,0,0,1,2.12,2.12c1.813,7.784,3.627,14.536,4.855,18.079,2.4,6.947,5.524,10.267,16.712,10.267s14.312-3.32,16.712-10.267c1.228-3.543,3.041-10.295,4.855-18.079a2.715,2.715,0,0,1,2.12-2.12c2.539-11.132,4.1-20.088,4.1-23.519,0-4.241-1.339-6.78-8.147-7.17a5.155,5.155,0,0,1-3.934,2.316c-.335.028-.67.056-.977.056-3.655,0-3.655-2.762-3.655-4.576,0-1.841,0-4.6,3.655-4.6.307,0,.614.028.977.056a5.1,5.1,0,0,1,3.99,2.4c5.385.279,12.164,1.9,12.164,11.55,0,5.385-3.041,19.334-4.241,24.551a3,3,0,0,1,.949,2.957c-1.9,8.063-3.794,15.121-5.106,18.888-3.264,9.458-8.76,13.978-18.386,15.038a1.712,1.712,0,0,0-1.507,1.758v5.552a2.955,2.955,0,0,1-1.562,2.678v4.464c33.312-1.869,51.167-49.41,51.167-78.286C224.118,43.248,192.118,39.9,170.914,39.9Z" transform="translate(655.176 44.673)" fill="#fff"/>
    <g id="Group_3526" data-name="Group 3526" transform="translate(780.085 106.781)">
      <path id="Path_12753" data-name="Path 12753" d="M137.169,81.992l.335,1.479.391-1.479,1.172-4.576c-.14-.53-.279-1.088-.419-1.646l-1.116,4.576-5.412-22.459-.2-.837-.167.837a47.054,47.054,0,0,1-1.172,4.743,20.311,20.311,0,0,1-1.841,4.464,3.941,3.941,0,0,1-1.59,1.646,2.467,2.467,0,0,1-1.116.112l-1.144.028-4.6.056,4.6.056,1.144.028h.586c.112,0,.2-.028.307-.028.112-.028.2-.056.279-.084a3.942,3.942,0,0,0,1.7-1.674,20.574,20.574,0,0,0,1.925-4.492c.419-1.311.781-2.623,1.088-3.962Z" transform="translate(-120.29 -31.41)" fill="#237fd9"/>
      <path id="Path_12754" data-name="Path 12754" d="M155.058,58.741l5.413,40.147.391,2.79.753-2.706,3.041-11.132a4.3,4.3,0,0,1,.5-1.144,1.64,1.64,0,0,1,.809-.642,10.4,10.4,0,0,1,2.539-.167l5.412-.028h.474a2.952,2.952,0,0,1,.753-.976H173.89l-5.413-.028h-1.367a4.6,4.6,0,0,0-1.479.2,2.583,2.583,0,0,0-1.339,1.032,5.5,5.5,0,0,0-.642,1.451l-2.4,8.454-5.608-42.77-.7-5.357-.614,5.385-2.9,25.919-2.371,21.678c-.53-2.65-1.116-5.3-1.73-7.923a60.886,60.886,0,0,0-1.7-6.026c-.084-.251-.2-.5-.307-.753a3.17,3.17,0,0,0-.474-.809l-.112-.112-.14-.139a2.568,2.568,0,0,1-.223-.139,1.44,1.44,0,0,0-.307-.056H140.1a2.105,2.105,0,0,1-1.73-1.367,6.39,6.39,0,0,1-.474-1.283l-.363-1.507-1.423-6L133.269,62.7l-.53-2.2-.53,2.176L127.94,80.028c.14.67.279,1.339.446,2.009l4.324-16.879,2.26,9.848,1.395,6.026.363,1.507a8.39,8.39,0,0,0,.586,1.59,4.309,4.309,0,0,0,1.088,1.395,2.737,2.737,0,0,0,1.7.642h3.822a3.665,3.665,0,0,1,.251.474c.084.223.2.446.279.67a56.523,56.523,0,0,1,1.618,5.859c.949,3.99,1.758,8.035,2.511,12.053l.809,4.3.5-4.352,2.929-25.919ZM144.066,86.194h.028C144.094,86.222,144.094,86.222,144.066,86.194Z" transform="translate(-106.597 -47.86)" fill="#237fd9"/>
      <path id="Path_12755" data-name="Path 12755" d="M149.472,70.742a.693.693,0,0,0,.223-.028c.084-.028.167-.028.251-.056a2.943,2.943,0,0,0,1.228-1.088,13.778,13.778,0,0,0,1.311-2.65c.363-.893.67-1.813.949-2.762.363-1.2.7-2.4,1-3.627l2.092,20.283.112.976.223-.949c.307-1.367.67-2.734,1.06-4.073a35.439,35.439,0,0,1,1.367-3.99,8.078,8.078,0,0,1,.976-1.813c.223-.251.474-.5.781-.474h1l3.962-.056-3.962-.056h-1a.773.773,0,0,0-.251.028.991.991,0,0,0-.251.112,2.407,2.407,0,0,0-.391.363,7.978,7.978,0,0,0-1.032,1.841,33.509,33.509,0,0,0-1.423,3.962c-.335,1.06-.614,2.092-.893,3.181L154.94,58.438l-.2-2.148-.5,2.092c-.446,1.869-.921,3.711-1.507,5.524a27.621,27.621,0,0,1-.949,2.678,13.537,13.537,0,0,1-1.255,2.455,2,2,0,0,1-.809.753c-.028.028-.056,0-.084.028-.028,0-.056.028-.112,0h-2.706c-.028.167-.084.307-.112.474a3.168,3.168,0,0,1,.418.446h2.343Z" transform="translate(-73 -32.771)" fill="#237fd9"/>
    </g>
  </g>
</svg>
